<?xml version="1.0" encoding="UTF-8"?> <svg xmlns="http://www.w3.org/2000/svg" width="65" height="103.537" viewBox="0 0 65 103.537"><g id="Group_2075" data-name="Group 2075" transform="translate(-927.462 -6527.463)"><rect id="Rectangle_400" data-name="Rectangle 400" width="65" height="65" rx="32.5" transform="translate(927.462 6592.462) rotate(-90)" fill="#ff2d49"></rect><rect id="Rectangle_401" data-name="Rectangle 401" width="7" height="50" rx="3.5" transform="translate(956 6581)" fill="#ff2d49"></rect><g id="Group_2086" data-name="Group 2086" transform="translate(946.462 6546.463)"><path id="Path_2252" data-name="Path 2252" d="M438.89,1282.486H415.747a1,1,0,0,1-1-1h0a1,1,0,0,1,1-1H438.89a1,1,0,0,1,1,1h0A1,1,0,0,1,438.89,1282.486Z" transform="translate(-414.744 -1263.757)" fill="#fff"></path><path id="Path_2253" data-name="Path 2253" d="M440.056,1266.656H416.913a1,1,0,0,1-1-1h0a1,1,0,0,1,1-1h23.143a1,1,0,0,1,1,1h0A1,1,0,0,1,440.056,1266.656Z" transform="translate(-415.325 -1255.865)" fill="#fff"></path><path id="Path_2254" data-name="Path 2254" d="M438.582,1274.559a4.151,4.151,0,0,1-1.447-.84,2.168,2.168,0,0,0-2.844,0,4.132,4.132,0,0,1-5.513,0,2.167,2.167,0,0,0-2.843,0,4.133,4.133,0,0,1-5.514,0,2.166,2.166,0,0,0-2.844,0,4.152,4.152,0,0,1-1.447.84,1,1,0,0,1-1.31-.958h0a1.018,1.018,0,0,1,.7-.954,2.165,2.165,0,0,0,.72-.425,4.134,4.134,0,0,1,5.514,0,2.166,2.166,0,0,0,2.844,0,4.133,4.133,0,0,1,5.513,0,2.166,2.166,0,0,0,2.844,0,4.134,4.134,0,0,1,5.514,0,2.151,2.151,0,0,0,.72.425,1.018,1.018,0,0,1,.7.954h0A1.007,1.007,0,0,1,438.582,1274.559Z" transform="translate(-414.782 -1259.115)" fill="#fff"></path><path id="Path_2255" data-name="Path 2255" d="M439.474,1287.57a1,1,0,0,0-1,1h0v.47a2.789,2.789,0,0,1-2.789,2.789H419.929a2.789,2.789,0,0,1-2.789-2.789v-.47h0a1,1,0,0,0-1-1h0a1,1,0,0,0-1,1v.47a4.8,4.8,0,0,0,4.795,4.8h15.753a4.8,4.8,0,0,0,4.795-4.8v-.47a1,1,0,0,0-1-1Z" transform="translate(-414.938 -1267.292)" fill="#fff"></path><path id="Path_2256" data-name="Path 2256" d="M419.262,1264.567h.015v-.083C419.273,1264.512,419.266,1264.542,419.262,1264.567Z" transform="translate(-416.996 -1255.782)" fill="#fff"></path><path id="Path_2257" data-name="Path 2257" d="M430.686,1247.13h-5.762a9.79,9.79,0,0,0-9.79,9.79h0a1,1,0,0,0,1,1h.079a1,1,0,0,0,1-1v-1H417.2c0-.028.011-.055.015-.083v-.022h0a7.8,7.8,0,0,1,7.7-6.677h5.762a7.794,7.794,0,0,1,7.7,6.677h.019v1.108a1,1,0,0,0,1,1h.064a1,1,0,0,0,1-1h0A9.791,9.791,0,0,0,430.686,1247.13Z" transform="translate(-414.938 -1247.13)" fill="#fff"></path><path id="Path_2258" data-name="Path 2258" d="M419.291,1264.44v.022c0-.007,0-.014,0-.022Z" transform="translate(-417.011 -1255.76)" fill="#fff"></path><path id="Path_2259" data-name="Path 2259" d="M461.528,1264.44h-.019c.005.035.014.069.019.105Z" transform="translate(-438.059 -1255.76)" fill="#fff"></path><path id="Path_2260" data-name="Path 2260" d="M438.89,1282.486H415.747a1,1,0,0,1-1-1h0a1,1,0,0,1,1-1H438.89a1,1,0,0,1,1,1h0A1,1,0,0,1,438.89,1282.486Z" transform="translate(-414.744 -1263.757)" fill="#fff"></path><path id="Path_2261" data-name="Path 2261" d="M440.056,1266.656H416.913a1,1,0,0,1-1-1h0a1,1,0,0,1,1-1h23.143a1,1,0,0,1,1,1h0A1,1,0,0,1,440.056,1266.656Z" transform="translate(-415.325 -1255.865)" fill="#fff"></path><path id="Path_2262" data-name="Path 2262" d="M438.582,1274.559a4.151,4.151,0,0,1-1.447-.84,2.168,2.168,0,0,0-2.844,0,4.132,4.132,0,0,1-5.513,0,2.167,2.167,0,0,0-2.843,0,4.133,4.133,0,0,1-5.514,0,2.166,2.166,0,0,0-2.844,0,4.152,4.152,0,0,1-1.447.84,1,1,0,0,1-1.31-.958h0a1.018,1.018,0,0,1,.7-.954,2.165,2.165,0,0,0,.72-.425,4.134,4.134,0,0,1,5.514,0,2.166,2.166,0,0,0,2.844,0,4.133,4.133,0,0,1,5.513,0,2.166,2.166,0,0,0,2.844,0,4.134,4.134,0,0,1,5.514,0,2.151,2.151,0,0,0,.72.425,1.018,1.018,0,0,1,.7.954h0A1.007,1.007,0,0,1,438.582,1274.559Z" transform="translate(-414.782 -1259.115)" fill="#fff"></path><path id="Path_2263" data-name="Path 2263" d="M439.474,1287.57a1,1,0,0,0-1,1h0v.47a2.789,2.789,0,0,1-2.789,2.789H419.929a2.789,2.789,0,0,1-2.789-2.789v-.47h0a1,1,0,0,0-1-1h0a1,1,0,0,0-1,1v.47a4.8,4.8,0,0,0,4.795,4.8h15.753a4.8,4.8,0,0,0,4.795-4.8v-.47a1,1,0,0,0-1-1Z" transform="translate(-414.938 -1267.292)" fill="#fff"></path><path id="Path_2264" data-name="Path 2264" d="M419.262,1264.567h.015v-.083C419.273,1264.512,419.266,1264.542,419.262,1264.567Z" transform="translate(-416.996 -1255.782)" fill="#fff"></path><path id="Path_2265" data-name="Path 2265" d="M430.686,1247.13h-5.762a9.79,9.79,0,0,0-9.79,9.79h0a1,1,0,0,0,1,1h.079a1,1,0,0,0,1-1v-1H417.2c0-.028.011-.055.015-.083v-.022h0a7.8,7.8,0,0,1,7.7-6.677h5.762a7.794,7.794,0,0,1,7.7,6.677h.019v1.108a1,1,0,0,0,1,1h.064a1,1,0,0,0,1-1h0A9.791,9.791,0,0,0,430.686,1247.13Z" transform="translate(-414.938 -1247.13)" fill="#fff"></path><path id="Path_2266" data-name="Path 2266" d="M419.291,1264.44v.022c0-.007,0-.014,0-.022Z" transform="translate(-417.011 -1255.76)" fill="#fff"></path><path id="Path_2267" data-name="Path 2267" d="M461.528,1264.44h-.019c.005.035.014.069.019.105Z" transform="translate(-438.059 -1255.76)" fill="#fff"></path></g></g></svg> 